<?xml version="1.0" encoding="utf-8"?>
<!-- Generator: Adobe Illustrator 23.0.1, SVG Export Plug-In . SVG Version: 6.00 Build 0)  -->
<svg version="1.1" id="Layer_1" xmlns="http://www.w3.org/2000/svg" xmlns:xlink="http://www.w3.org/1999/xlink" x="0px" y="0px"
	 viewBox="0 0 500 248" style="enable-background:new 0 0 500 248;" xml:space="preserve">
<style type="text/css">
	.st0{fill:none;}
	.st1{fill:#EE0E51;}
	.st2{font-family:'Arial-BoldMT';}
	.st3{font-size:40px;}
	.st4{letter-spacing:1;}
	.st5{fill-rule:evenodd;clip-rule:evenodd;fill:#EE0E51;}
	.st6{font-size:60px;}
</style>
<g transform="translate(40 327)">
	<rect y="-124" class="st0" width="420" height="53"/>
	<text transform="matrix(1 0 0 1 87.258 -90.5)" class="st1 st2 st3 st4">onepac news</text>
</g>
<path class="st5" d="M325,60h150l-16,20H325V60z M325,85h100l-16,20h-84V85z M325,110h50l-16,20h-34V110z M175,60H25l16,20h134V60z
	 M175,85H75l16,20h84V85z M175,110h-50l16,20h34V110z"/>
<path class="st1" d="M250,165c38.7,0,70-31.3,70-70s-31.3-70-70-70s-70,31.3-70,70S211.3,165,250,165z M250,185
	c-49.7,0-90-40.3-90-90s40.3-90,90-90s90,40.3,90,90S299.7,185,250,185z"/>
<g transform="translate(210 180)">
	<rect y="-124" class="st0" width="80" height="80"/>
	<text transform="matrix(1 0 0 1 23.063 -68)" class="st1 st2 st6 st4">o</text>
</g>
</svg>
